<?xml version="1.0" encoding="UTF-8" standalone="no"?> <!-- Created with Vectornator for iOS (http://vectornator.io/) --><!DOCTYPE svg PUBLIC "-//W3C//DTD SVG 1.1//EN" "http://www.w3.org/Graphics/SVG/1.1/DTD/svg11.dtd">
<svg xmlns="http://www.w3.org/2000/svg" xmlns:xlink="http://www.w3.org/1999/xlink" xmlns:vectornator="http://vectornator.io" width="100%" viewBox="0 0 213.308 46.8813" version="1.1" xml:space="preserve" style="fill-rule:nonzero;clip-rule:evenodd;stroke-linecap:round;stroke-linejoin:round;" height="100%">
<metadata>
<vectornator:setting key="WDCMYKEnabledKey" value="false"/>
<vectornator:setting key="WDGuidesVisible" value="true"/>
<vectornator:setting key="WDSnapToEdges" value="false"/>
<vectornator:setting key="VNDimensionsVisible" value="true"/>
<vectornator:setting key="WDDisplayWhiteBackground" value="false"/>
<vectornator:setting key="WDRulersVisible" value="true"/>
<vectornator:setting key="WDOutlineMode" value="false"/>
<vectornator:setting key="WDIsolateActiveLayer" value="false"/>
<vectornator:setting value="Points" key="WDUnits"/>
<vectornator:setting key="VNSnapToGuides" value="true"/>
<vectornator:setting value="false" key="VNPencilOnly"/>
<vectornator:setting value="false" key="IsTimeLapseWatermarkDisabled"/>
<vectornator:setting value="false" key="WDSnapToPoints"/>
<vectornator:setting key="WDSnapToGrid" value="false"/>
<vectornator:setting key="WDDynamicGuides" value="false"/>
<vectornator:setting value="false" key="UndoHistoryDisabled"/>
</metadata>
<defs/>
<g visibility="hidden" id="Layer 2" vectornator:layerName="Layer 2">
<path d="M-0.793756+0L216.639+0L216.639+74.7485L-0.793756+74.7485L-0.793756+0Z" opacity="1" fill="#000000"/>
</g>
<g vectornator:layerName="Untitled" id="Untitled">
<g opacity="1">
<g opacity="1">
<path fill="#ffffff" opacity="1" d="M101.104+22.28C99.6845+22.28+98.3945+21.97+97.2545+21.36C96.1145+20.75+95.2245+19.89+94.5945+18.79L95.9745+17.12C97.2345+19.16+98.9345+20.17+101.084+20.17C102.184+20.17+103.034+19.93+103.634+19.45C104.234+18.97+104.544+18.32+104.544+17.49C104.544+16.75+104.294+16.14+103.804+15.64C103.304+15.15+102.534+14.73+101.464+14.38L99.5745+13.79C98.0945+13.32+97.0245+12.72+96.3445+11.98C95.6645+11.24+95.3345+10.32+95.3345+9.22C95.3345+8.28+95.5745+7.46+96.0545+6.73C96.5345+6.01+97.1945+5.44+98.0445+5.03C98.8945+4.62+99.8545+4.41+100.934+4.41C102.164+4.41+103.254+4.65+104.204+5.13C105.154+5.61+105.914+6.3+106.474+7.2L105.094+8.87C104.174+7.3+102.794+6.52+100.954+6.52C99.9245+6.52+99.1145+6.75+98.5045+7.2C97.8945+7.66+97.5945+8.28+97.5945+9.07C97.5945+9.74+97.8145+10.28+98.2545+10.69C98.6945+11.1+99.4445+11.48+100.514+11.82L102.404+12.41C105.344+13.35+106.814+14.99+106.814+17.35C106.814+18.83+106.294+20.02+105.244+20.92C104.194+21.83+102.814+22.28+101.104+22.28Z"/>
<path d="M109.534+27.12L113.234+19.66L107.694+8.23L110.154+8.23L114.424+17.47L118.664+8.23L120.964+8.23L111.804+27.11L109.534+27.11L109.534+27.12Z" opacity="1" fill="#ffffff"/>
<path fill="#ffffff" d="M122.424+21.98L122.424+8.21L124.284+8.21L124.524+10.75C124.974+9.89+125.574+9.2+126.334+8.7C127.094+8.2+127.924+7.94+128.844+7.94C129.884+7.94+130.784+8.22+131.534+8.78C132.284+9.34+132.824+10.15+133.174+11.21C133.604+10.22+134.244+9.43+135.084+8.83C135.924+8.24+136.854+7.94+137.884+7.94C139.324+7.94+140.474+8.46+141.334+9.51C142.194+10.55+142.614+12.07+142.614+14.05L142.614+21.99L140.454+21.99L140.454+14.15C140.454+12.82+140.174+11.8+139.614+11.1C139.054+10.4+138.294+10.05+137.344+10.05C136.604+10.05+135.954+10.26+135.384+10.68C134.814+11.1+134.374+11.67+134.064+12.37C133.744+13.07+133.594+13.84+133.594+14.67L133.594+21.99L131.434+21.99L131.434+14.15C131.434+12.82+131.154+11.8+130.594+11.1C130.034+10.4+129.284+10.05+128.354+10.05C127.594+10.05+126.944+10.27+126.384+10.7C125.824+11.13+125.384+11.7+125.074+12.39C124.754+13.08+124.604+13.84+124.604+14.67L124.604+21.99L122.424+21.99L122.424+21.98Z" opacity="1"/>
<path d="M144.884+27.12L144.884+8.21L146.744+8.21L146.984+10.8C147.394+9.94+148.024+9.24+148.844+8.72C149.674+8.2+150.614+7.94+151.654+7.94C152.804+7.94+153.834+8.25+154.744+8.86C155.654+9.47+156.374+10.31+156.904+11.39C157.434+12.46+157.704+13.7+157.704+15.1C157.704+16.49+157.434+17.72+156.904+18.8C156.374+19.88+155.654+20.73+154.744+21.34C153.834+21.95+152.804+22.26+151.654+22.26C150.604+22.26+149.684+22+148.874+21.49C148.064+20.98+147.454+20.29+147.034+19.42L147.034+27.12C147.034+27.12+144.884+27.12+144.884+27.12ZM151.264+20.15C152.074+20.15+152.804+19.94+153.444+19.52C154.084+19.1+154.584+18.5+154.954+17.74C155.324+16.97+155.504+16.1+155.504+15.11C155.504+14.1+155.314+13.22+154.954+12.46C154.584+11.7+154.084+11.11+153.444+10.69C152.804+10.27+152.084+10.06+151.264+10.06C150.454+10.06+149.724+10.27+149.084+10.69C148.444+11.11+147.944+11.7+147.574+12.46C147.204+13.22+147.024+14.1+147.024+15.11C147.024+16.1+147.204+16.98+147.574+17.74C147.944+18.51+148.444+19.1+149.084+19.52C149.724+19.93+150.444+20.15+151.264+20.15Z" fill="#ffffff" opacity="1"/>
<path fill="#ffffff" d="M159.444+21.98L159.444+2.8L161.604+2.8L161.604+10.72C162.054+9.86+162.664+9.18+163.444+8.68C164.214+8.19+165.094+7.94+166.064+7.94C167.564+7.94+168.744+8.46+169.634+9.51C170.514+10.55+170.954+12.07+170.954+14.05L170.954+21.99L168.794+21.99L168.794+14.15C168.794+12.82+168.504+11.8+167.914+11.1C167.324+10.4+166.544+10.05+165.554+10.05C164.784+10.05+164.094+10.26+163.504+10.68C162.914+11.1+162.444+11.67+162.114+12.37C161.784+13.07+161.614+13.84+161.614+14.67L161.614+21.99L159.444+21.99L159.444+21.98Z" opacity="1"/>
<path opacity="1" d="M179.184+22.31C177.924+22.31+176.794+22+175.804+21.39C174.814+20.78+174.034+19.93+173.454+18.84C172.874+17.75+172.594+16.5+172.594+15.1C172.594+13.68+172.884+12.43+173.454+11.35C174.034+10.27+174.814+9.42+175.804+8.81C176.794+8.2+177.924+7.89+179.184+7.89C180.444+7.89+181.574+8.2+182.564+8.81C183.554+9.42+184.334+10.27+184.914+11.35C185.494+12.43+185.784+13.68+185.784+15.1C185.784+16.5+185.494+17.75+184.914+18.84C184.334+19.93+183.554+20.78+182.564+21.39C181.574+22+180.444+22.31+179.184+22.31ZM179.184+20.2C180.464+20.2+181.514+19.74+182.334+18.81C183.154+17.88+183.564+16.64+183.564+15.1C183.564+13.55+183.154+12.31+182.334+11.39C181.514+10.46+180.464+10+179.184+10C177.924+10+176.874+10.46+176.044+11.39C175.214+12.32+174.804+13.56+174.804+15.1C174.804+16.65+175.214+17.89+176.044+18.81C176.884+19.74+177.924+20.2+179.184+20.2Z" fill="#ffffff"/>
<path d="M187.504+21.98L187.504+8.21L189.364+8.21L189.604+10.78C190.054+9.9+190.674+9.2+191.454+8.7C192.234+8.2+193.124+7.94+194.114+7.94C195.614+7.94+196.794+8.46+197.684+9.51C198.564+10.55+199.004+12.07+199.004+14.05L199.004+21.99L196.844+21.99L196.844+14.15C196.844+12.82+196.554+11.8+195.964+11.1C195.374+10.4+194.594+10.05+193.604+10.05C192.834+10.05+192.144+10.26+191.554+10.68C190.964+11.1+190.494+11.67+190.164+12.37C189.834+13.07+189.664+13.84+189.664+14.67L189.664+21.99L187.504+21.99L187.504+21.98Z" fill="#ffffff" opacity="1"/>
<path d="M201.404+27.12L205.104+19.66L199.564+8.23L202.024+8.23L206.294+17.47L210.534+8.23L212.834+8.23L203.674+27.11L201.404+27.11L201.404+27.12Z" opacity="1" fill="#ffffff"/>
</g>
<g opacity="1">
<path d="M72.2545+24.7L18.7045+24.7L22.9645+28.97L72.2545+24.7Z" fill="#ffffff" opacity="1"/>
<path d="M23.6645+7.46L23.6645+8.1C22.6745+7.47+21.7745+7.1+20.5545+7.1C16.8045+7.1+13.9545+10.52+13.9545+14.72C13.9545+18.92+16.8045+22.34+20.5545+22.34C21.7745+22.34+22.6645+21.97+23.6645+21.34L23.6645+21.98L26.9645+21.98L26.9645+7.46L23.6645+7.46ZM20.5545+18.84C18.7045+18.84+17.3545+17.02+17.3545+14.72C17.3545+12.42+18.7045+10.6+20.5545+10.6C22.4045+10.6+23.7145+12.42+23.7145+14.72C23.7145+17.02+22.4045+18.84+20.5545+18.84Z" fill="#ffffff" opacity="1"/>
<path fill="#ffffff" d="M50.0745+7.46L50.0745+15.99C50.0745+17.59+48.9745+18.94+47.3745+18.94C45.7745+18.94+44.6745+17.59+44.6745+15.99L44.6745+7.46L41.3745+7.46L41.3745+15.99C41.3745+19.49+43.7745+22.34+47.2745+22.34C48.8945+22.34+50.0745+21.44+50.0745+21.44L50.0745+21.98L53.3745+21.98L53.3745+7.46L50.0745+7.46Z" opacity="1"/>
<path fill="#ffffff" d="M80.8045+21.98L80.8045+13.45C80.8045+11.85+81.9045+10.5+83.5045+10.5C85.1045+10.5+86.2045+11.85+86.2045+13.45L86.2045+21.98L89.5045+21.98L89.5045+13.45C89.5045+9.95+87.1045+7.1+83.6045+7.1C81.9845+7.1+80.8045+8+80.8045+8L80.8045+7.46L77.5045+7.46L77.5045+21.98L80.8045+21.98Z" opacity="1"/>
<path fill="#ffffff" d="M4.44446+21.98L4.44446+16.35L6.88446+16.35L11.1045+21.98L15.4245+21.98L10.3245+15.19C11.9145+14.05+12.9545+12.19+12.9545+10.09C12.9545+6.64+10.1445+3.84+6.69446+3.84L0.994459+3.84L0.994459+21.98C0.994459+21.98+4.44446+21.98+4.44446+21.98ZM4.44446+7.29L6.69446+7.29C8.24446+7.29+9.51446+8.55+9.51446+10.1C9.51446+11.66+8.24446+12.91+6.69446+12.91L4.44446+12.91L4.44446+7.29Z" opacity="1"/>
<path fill="#ffffff" d="M62.2645+18.55C61.9645+18.75+61.5945+18.91+61.1645+18.91C60.6245+18.91+59.6145+18.5+59.6145+17.13L59.6145+10.91L62.4345+10.91L62.4345+7.46L59.6145+7.46L59.6145+3.84L56.3145+3.84L56.3145+7.46L54.5745+7.46L54.5745+10.91L56.3145+10.91L56.3145+17.18C56.3145+20.42+58.7545+22.36+61.2145+22.36C62.1345+22.36+63.4045+22.06+64.4445+21.45L62.2645+18.55Z" opacity="1"/>
<path fill="#ffffff" d="M35.1545+14.27L40.8145+7.46L36.1945+7.46L32.2345+12.52L32.2345+2.64L28.8445+2.64L28.8445+21.98L32.2345+21.98L32.2345+16.02L37.0945+21.98L41.7245+21.98L35.1545+14.27Z" opacity="1"/>
<path opacity="1" fill="#ffffff" d="M69.8845+7.09C66.0645+7.09+63.3345+10.44+63.3345+14.72C63.3345+19.22+66.7745+22.35+70.2145+22.35C71.9545+22.35+74.1845+21.75+76.0545+19.1L73.1445+17.42C70.8945+20.74+67.1345+19.05+66.7045+15.74L76.2045+15.74C77.0045+10.52+73.6345+7.09+69.8845+7.09ZM72.7645+12.85L66.8245+12.85C67.5145+9.45+72.1145+9.25+72.7645+12.85Z"/>
</g>
</g>
</g>
<g id="Layer 1" vectornator:layerName="Layer 1">
<g opacity="1">
<path opacity="1" d="M167.168+42.97L167.168+31.24L170.789+31.24C172.103+31.24+173.152+31.563+173.934+32.209C174.716+32.855+175.107+33.756+175.107+34.912C175.107+35.7053+174.917+36.3825+174.537+36.9435C174.157+37.5045+173.628+37.9267+172.948+38.21L176.518+42.97L174.784+42.97L171.537+38.55C171.287+38.5727+171.027+38.584+170.755+38.584L168.579+38.584L168.579+42.97L167.168+42.97ZM170.67+32.549L168.579+32.549L168.579+37.275L170.67+37.275C171.633+37.275+172.372+37.0908+172.888+36.7225C173.404+36.3542+173.662+35.7507+173.662+34.912C173.662+34.0733+173.404+33.4698+172.888+33.1015C172.372+32.7332+171.633+32.549+170.67+32.549Z" fill="#ffffff"/>
<path fill="#ffffff" d="M178.507+42.97L178.507+35.558L176.926+35.558L176.926+34.3L178.507+34.3L178.507+33.688C178.507+32.7473+178.733+32.0135+179.187+31.4865C179.64+30.9595+180.28+30.696+181.108+30.696C181.856+30.696+182.502+30.9+183.046+31.308L182.536+32.617C182.139+32.2203+181.669+32.022+181.125+32.022C180.286+32.022+179.867+32.5773+179.867+33.688L179.867+34.3L182.655+34.3L182.655+35.558L179.867+35.558L179.867+42.97L178.507+42.97Z" opacity="1"/>
<path d="M184.338+42.97L184.338+30.9L185.698+30.9L185.698+42.97L184.338+42.97Z" opacity="1" fill="#ffffff"/>
<path opacity="1" fill="#ffffff" d="M191.92+43.174C191.126+43.174+190.418+42.9813+189.795+42.596C189.171+42.2107+188.678+41.6752+188.316+40.9895C187.953+40.3038+187.772+39.519+187.772+38.635C187.772+37.7397+187.953+36.952+188.316+36.272C188.678+35.592+189.171+35.0593+189.795+34.674C190.418+34.2887+191.126+34.096+191.92+34.096C192.713+34.096+193.421+34.2887+194.045+34.674C194.668+35.0593+195.161+35.592+195.524+36.272C195.886+36.952+196.068+37.7397+196.068+38.635C196.068+39.519+195.886+40.3038+195.524+40.9895C195.161+41.6752+194.668+42.2107+194.045+42.596C193.421+42.9813+192.713+43.174+191.92+43.174ZM191.92+41.848C192.724+41.848+193.384+41.5562+193.9+40.9725C194.416+40.3888+194.674+39.6097+194.674+38.635C194.674+37.6603+194.416+36.8812+193.9+36.2975C193.384+35.7138+192.724+35.422+191.92+35.422C191.126+35.422+190.469+35.7138+189.948+36.2975C189.426+36.8812+189.166+37.6603+189.166+38.635C189.166+39.6097+189.426+40.3888+189.948+40.9725C190.469+41.5562+191.126+41.848+191.92+41.848Z"/>
<path d="M199.706+42.97L196.918+34.3L198.346+34.3L200.505+41.559L202.647+34.334L203.99+34.334L206.149+41.508L208.291+34.3L209.617+34.3L206.829+42.97L205.333+42.97L203.293+36.374L201.185+42.97L199.706+42.97Z" opacity="1" fill="#ffffff"/>
</g>
</g>
</svg>
